<?xml version="1.0" encoding="UTF-8" ?>
<!DOCTYPE svg PUBLIC "-//W3C//DTD SVG 1.1//EN" "http://www.w3.org/Graphics/SVG/1.1/DTD/svg11.dtd">
<svg width="500pt" height="500pt" viewBox="0 0 500 500" version="1.1" xmlns="http://www.w3.org/2000/svg">
<g id="#f2ebe2ff">
<path fill="#f2ebe2" opacity="1.00" d=" M 0.00 0.00 L 500.00 0.00 L 500.00 500.00 L 0.00 500.00 L 0.00 0.00 M 232.07 74.97 C 217.90 76.20 204.04 79.92 190.62 84.51 C 156.62 96.71 128.55 122.33 110.11 153.06 C 96.74 175.32 88.00 200.44 85.11 226.27 C 82.44 246.56 85.15 267.14 89.32 287.04 C 93.42 305.01 99.70 323.06 111.74 337.35 C 122.47 350.66 137.03 360.26 152.25 367.71 C 171.90 377.20 193.12 383.92 214.97 385.49 C 228.03 386.25 242.20 385.01 253.00 376.89 C 263.92 368.23 270.01 353.81 268.75 339.95 C 268.11 330.88 263.34 322.44 256.65 316.42 C 250.87 310.88 243.30 306.93 239.32 299.73 C 235.60 293.50 236.78 285.38 240.50 279.42 C 245.73 270.83 254.09 264.84 262.01 258.92 C 272.49 251.25 282.86 243.32 292.04 234.08 C 309.32 216.82 323.42 195.22 327.64 170.83 C 330.43 155.45 329.03 139.24 323.02 124.77 C 316.10 107.80 302.42 94.16 286.40 85.58 C 269.92 76.55 250.69 73.36 232.07 74.97 M 405.17 83.26 C 399.86 85.10 395.99 89.76 394.06 94.91 C 381.92 124.94 370.05 155.07 358.22 185.22 C 345.83 217.03 333.44 248.86 322.30 281.13 C 313.46 306.59 305.57 332.36 297.20 357.97 C 293.65 360.06 290.15 362.44 287.71 365.85 C 283.10 371.81 281.68 379.61 282.11 387.00 C 282.82 397.24 281.07 407.86 275.86 416.81 C 273.93 419.65 273.77 424.19 276.99 426.17 C 280.77 428.43 285.29 426.81 289.32 426.24 C 304.44 422.96 318.46 414.10 327.46 401.44 C 333.60 392.85 336.23 381.57 333.16 371.30 C 347.16 339.59 361.15 307.84 373.42 275.40 C 383.75 247.53 392.32 219.05 401.62 190.83 C 409.69 165.87 417.92 140.95 426.14 116.04 C 427.67 111.11 429.81 106.28 430.18 101.07 C 430.28 96.48 428.91 91.70 425.75 88.27 C 420.67 82.73 412.21 80.93 405.17 83.26 Z" />
<path fill="#f2ebe2" opacity="1.00" d=" M 229.22 88.22 C 239.42 86.92 249.80 87.40 259.89 89.32 C 277.80 93.40 294.48 103.79 305.10 118.90 C 313.90 131.31 317.27 147.07 315.97 162.09 C 314.09 183.27 303.04 202.51 289.21 218.22 C 280.82 227.90 270.95 236.17 260.69 243.79 C 250.63 251.56 239.67 258.65 231.99 269.00 C 227.21 275.32 224.33 283.05 223.93 290.97 C 223.97 299.88 228.02 308.46 234.39 314.60 C 240.75 321.22 249.86 325.43 253.95 334.04 C 258.60 344.66 254.84 357.73 246.52 365.45 C 241.14 370.17 233.92 372.12 226.90 372.47 C 207.30 373.58 187.88 368.57 169.85 361.22 C 153.03 354.41 136.54 345.38 124.24 331.78 C 113.41 319.99 106.96 304.89 103.18 289.49 C 96.69 263.94 94.64 236.80 100.60 210.94 C 107.00 182.55 120.58 155.72 140.10 134.09 C 156.69 115.89 177.78 101.31 201.59 94.45 C 210.66 91.85 219.79 89.14 229.22 88.22 M 253.33 109.46 C 247.49 111.11 242.21 114.82 239.04 120.03 C 233.18 128.77 233.11 141.05 239.32 149.62 C 245.77 158.18 257.49 162.27 267.89 159.80 C 274.62 157.84 280.89 153.55 284.34 147.34 C 288.76 139.80 288.43 130.09 284.54 122.40 C 278.63 111.74 265.06 106.12 253.33 109.46 M 184.36 135.49 C 166.58 138.76 154.14 160.57 162.97 177.04 C 169.76 190.71 188.30 193.43 201.11 187.21 C 216.86 179.56 220.91 155.69 208.85 143.10 C 202.80 136.49 193.09 133.53 184.36 135.49 M 141.36 205.41 C 136.82 206.05 132.50 208.03 128.97 210.93 C 119.05 219.27 115.75 234.75 121.63 246.33 C 126.77 255.10 137.16 259.56 146.98 260.18 C 162.06 260.42 174.96 245.79 174.05 230.99 C 173.36 224.35 170.79 217.74 165.96 213.02 C 159.66 206.57 150.14 204.08 141.36 205.41 M 164.31 281.37 C 147.35 284.72 136.92 305.57 144.87 321.03 C 152.87 335.66 175.07 337.87 187.06 327.02 C 197.82 317.63 198.92 299.20 189.30 288.65 C 182.96 282.19 173.11 279.46 164.31 281.37 Z" />
<path fill="#f2ebe2" opacity="1.00" d=" M 407.26 97.23 C 409.40 93.79 415.07 94.77 416.77 98.16 C 418.17 100.68 416.75 103.53 415.96 106.01 C 407.39 131.82 398.95 157.68 390.53 183.55 C 383.06 206.38 375.92 229.32 368.08 252.04 C 360.39 274.30 351.70 296.22 342.29 317.81 C 336.97 315.16 331.26 313.41 325.53 311.89 C 333.47 286.35 342.84 261.27 352.26 236.25 C 368.78 192.72 386.13 149.51 403.32 106.24 C 404.58 103.22 405.59 100.06 407.26 97.23 Z" />
<path fill="#f2ebe2" opacity="1.00" d=" M 321.50 324.15 C 326.89 325.90 332.39 327.34 337.52 329.82 C 332.62 340.03 328.50 350.59 323.59 360.79 C 319.70 358.69 315.52 357.23 311.22 356.27 C 314.70 345.58 318.09 334.86 321.50 324.15 Z" />
<path fill="#f2ebe2" opacity="1.00" d=" M 296.57 375.80 C 298.65 371.21 304.04 367.54 309.17 369.05 C 313.23 370.10 316.92 372.17 320.60 374.13 C 322.40 380.17 321.66 386.92 318.16 392.21 C 312.14 401.61 302.51 408.43 292.02 412.01 C 293.29 406.75 294.83 401.50 294.79 396.03 C 295.38 389.31 293.39 382.10 296.57 375.80 Z" />
</g>
<g id="#4c2620ff">
<path fill="#4c2620" opacity="1.00" d=" M 232.07 74.97 C 250.69 73.36 269.92 76.55 286.40 85.58 C 302.42 94.16 316.10 107.80 323.02 124.77 C 329.03 139.24 330.43 155.45 327.64 170.83 C 323.42 195.22 309.32 216.82 292.04 234.08 C 282.86 243.32 272.49 251.25 262.01 258.92 C 254.09 264.84 245.73 270.83 240.50 279.42 C 236.78 285.38 235.60 293.50 239.32 299.73 C 243.30 306.93 250.87 310.88 256.65 316.42 C 263.34 322.44 268.11 330.88 268.75 339.95 C 270.01 353.81 263.92 368.23 253.00 376.89 C 242.20 385.01 228.03 386.25 214.97 385.49 C 193.12 383.92 171.90 377.20 152.25 367.71 C 137.03 360.26 122.47 350.66 111.74 337.35 C 99.70 323.06 93.42 305.01 89.32 287.04 C 85.15 267.14 82.44 246.56 85.11 226.27 C 88.00 200.44 96.74 175.32 110.11 153.06 C 128.55 122.33 156.62 96.71 190.62 84.51 C 204.04 79.92 217.90 76.20 232.07 74.97 M 229.22 88.22 C 219.79 89.14 210.66 91.85 201.59 94.45 C 177.78 101.31 156.69 115.89 140.10 134.09 C 120.58 155.72 107.00 182.55 100.60 210.94 C 94.64 236.80 96.69 263.94 103.18 289.49 C 106.96 304.89 113.41 319.99 124.24 331.78 C 136.54 345.38 153.03 354.41 169.85 361.22 C 187.88 368.57 207.30 373.58 226.90 372.47 C 233.92 372.12 241.14 370.17 246.52 365.45 C 254.84 357.73 258.60 344.66 253.95 334.04 C 249.86 325.43 240.75 321.22 234.39 314.60 C 228.02 308.46 223.97 299.88 223.93 290.97 C 224.33 283.05 227.21 275.32 231.99 269.00 C 239.67 258.65 250.63 251.56 260.69 243.79 C 270.95 236.17 280.82 227.90 289.21 218.22 C 303.04 202.51 314.09 183.27 315.97 162.09 C 317.27 147.07 313.90 131.31 305.10 118.90 C 294.48 103.79 277.80 93.40 259.89 89.32 C 249.80 87.40 239.42 86.92 229.22 88.22 Z" />
<path fill="#4c2620" opacity="1.00" d=" M 405.17 83.26 C 412.21 80.93 420.67 82.73 425.75 88.27 C 428.91 91.70 430.28 96.48 430.18 101.07 C 429.81 106.28 427.67 111.11 426.14 116.04 C 417.92 140.95 409.69 165.87 401.62 190.83 C 392.32 219.05 383.75 247.53 373.42 275.40 C 361.15 307.84 347.16 339.59 333.16 371.30 C 336.23 381.57 333.60 392.85 327.46 401.44 C 318.46 414.10 304.44 422.96 289.32 426.24 C 285.29 426.81 280.77 428.43 276.99 426.17 C 273.77 424.19 273.93 419.65 275.86 416.81 C 281.07 407.86 282.82 397.24 282.11 387.00 C 281.68 379.61 283.10 371.81 287.71 365.85 C 290.15 362.44 293.65 360.06 297.20 357.97 C 305.57 332.36 313.46 306.59 322.30 281.13 C 333.44 248.86 345.83 217.03 358.22 185.22 C 370.05 155.07 381.92 124.94 394.06 94.91 C 395.99 89.76 399.86 85.10 405.17 83.26 M 407.26 97.23 C 405.59 100.06 404.58 103.22 403.32 106.24 C 386.13 149.51 368.78 192.72 352.26 236.25 C 342.84 261.27 333.47 286.35 325.53 311.89 C 331.26 313.41 336.97 315.16 342.29 317.81 C 351.70 296.22 360.39 274.30 368.08 252.04 C 375.92 229.32 383.06 206.38 390.53 183.55 C 398.95 157.68 407.39 131.82 415.96 106.01 C 416.75 103.53 418.17 100.68 416.77 98.16 C 415.07 94.77 409.40 93.79 407.26 97.23 M 321.50 324.15 C 318.09 334.86 314.70 345.58 311.22 356.27 C 315.52 357.23 319.70 358.69 323.59 360.79 C 328.50 350.59 332.62 340.03 337.52 329.82 C 332.39 327.34 326.89 325.90 321.50 324.15 M 296.57 375.80 C 293.39 382.10 295.38 389.31 294.79 396.03 C 294.83 401.50 293.29 406.75 292.02 412.01 C 302.51 408.43 312.14 401.61 318.16 392.21 C 321.66 386.92 322.40 380.17 320.60 374.13 C 316.92 372.17 313.23 370.10 309.17 369.05 C 304.04 367.54 298.65 371.21 296.57 375.80 Z" />
</g>
<g id="#e5bf8cff">
<path fill="#e5bf8c" opacity="1.00" d=" M 253.33 109.46 C 265.06 106.12 278.63 111.74 284.54 122.40 C 288.43 130.09 288.76 139.80 284.34 147.34 C 280.89 153.55 274.62 157.84 267.89 159.80 C 257.49 162.27 245.77 158.18 239.32 149.62 C 233.11 141.05 233.18 128.77 239.04 120.03 C 242.21 114.82 247.49 111.11 253.33 109.46 Z" />
<path fill="#e5bf8c" opacity="1.00" d=" M 184.36 135.49 C 193.09 133.53 202.80 136.49 208.85 143.10 C 220.91 155.69 216.86 179.56 201.11 187.21 C 188.30 193.43 169.76 190.71 162.97 177.04 C 154.14 160.57 166.58 138.76 184.36 135.49 Z" />
<path fill="#e5bf8c" opacity="1.00" d=" M 141.36 205.41 C 150.14 204.08 159.66 206.57 165.96 213.02 C 170.79 217.74 173.36 224.35 174.05 230.99 C 174.96 245.79 162.06 260.42 146.98 260.18 C 137.16 259.56 126.77 255.10 121.63 246.33 C 115.75 234.75 119.05 219.27 128.97 210.93 C 132.50 208.03 136.82 206.05 141.36 205.41 Z" />
<path fill="#e5bf8c" opacity="1.00" d=" M 164.31 281.37 C 173.11 279.46 182.96 282.19 189.30 288.65 C 198.92 299.20 197.82 317.63 187.06 327.02 C 175.07 337.87 152.87 335.66 144.87 321.03 C 136.92 305.57 147.35 284.72 164.31 281.37 Z" />
</g>
</svg>
